<svg width="17" height="16" viewBox="0 0 17 16" fill="none" xmlns="http://www.w3.org/2000/svg">
<path d="M14.6871 13.6464L11.5578 10.5176C12.4648 9.42871 12.9171 8.03201 12.8205 6.6181C12.724 5.20419 12.0861 3.88193 11.0395 2.92637C9.99288 1.97082 8.61817 1.45555 7.20134 1.48775C5.7845 1.51995 4.43462 2.09714 3.43251 3.09926C2.4304 4.10137 1.8532 5.45125 1.821 6.86808C1.7888 8.28492 2.30407 9.65963 3.25963 10.7062C4.21518 11.7528 5.53744 12.3908 6.95135 12.4873C8.36526 12.5838 9.76196 12.1315 10.8509 11.2245L13.9796 14.3539C14.0261 14.4003 14.0813 14.4372 14.1419 14.4623C14.2026 14.4875 14.2677 14.5004 14.3334 14.5004C14.3991 14.5004 14.4641 14.4875 14.5248 14.4623C14.5855 14.4372 14.6407 14.4003 14.6871 14.3539C14.7336 14.3074 14.7704 14.2523 14.7956 14.1916C14.8207 14.1309 14.8337 14.0658 14.8337 14.0001C14.8337 13.9344 14.8207 13.8694 14.7956 13.8087C14.7704 13.748 14.7336 13.6928 14.6871 13.6464ZM2.83339 7.00014C2.83339 6.11013 3.09732 5.2401 3.59178 4.50008C4.08625 3.76006 4.78905 3.18328 5.61132 2.84268C6.43359 2.50209 7.33839 2.41298 8.2113 2.58661C9.08422 2.76024 9.88604 3.18883 10.5154 3.81816C11.1447 4.4475 11.5733 5.24932 11.7469 6.12224C11.9206 6.99515 11.8314 7.89995 11.4909 8.72222C11.1503 9.54449 10.5735 10.2473 9.83346 10.7418C9.09344 11.2362 8.22341 11.5001 7.33339 11.5001C6.14033 11.4988 4.9965 11.0243 4.15288 10.1807C3.30925 9.33704 2.83472 8.19321 2.83339 7.00014Z" fill="#8C8C8C"/>
</svg>
