<svg width="32" height="32" viewBox="0 0 32 32" fill="none" xmlns="http://www.w3.org/2000/svg">
<path d="M28.8651 26.4995C26.9613 23.2082 24.0276 20.8482 20.6038 19.7295C22.2974 18.7213 23.6132 17.1851 24.3491 15.3567C25.0851 13.5284 25.2005 11.509 24.6777 9.60869C24.1548 7.70838 23.0227 6.03224 21.4551 4.83765C19.8874 3.64306 17.971 2.99609 16.0001 2.99609C14.0292 2.99609 12.1128 3.64306 10.5451 4.83765C8.9775 6.03224 7.84534 7.70838 7.32252 9.60869C6.7997 11.509 6.91513 13.5284 7.65108 15.3567C8.38703 17.1851 9.7028 18.7213 11.3963 19.7295C7.97259 20.847 5.03884 23.207 3.13509 26.4995C3.06528 26.6133 3.01897 26.74 2.99891 26.872C2.97884 27.004 2.98541 27.1387 3.01825 27.2682C3.05108 27.3976 3.10951 27.5192 3.19008 27.6257C3.27066 27.7322 3.37174 27.8214 3.48738 27.8882C3.60301 27.955 3.73085 27.998 3.86335 28.0146C3.99586 28.0311 4.13034 28.021 4.25887 27.9848C4.3874 27.9486 4.50737 27.8869 4.6117 27.8036C4.71604 27.7202 4.80262 27.6168 4.86634 27.4995C7.22134 23.4295 11.3838 20.9995 16.0001 20.9995C20.6163 20.9995 24.7788 23.4295 27.1338 27.4995C27.1976 27.6168 27.2842 27.7202 27.3885 27.8036C27.4928 27.8869 27.6128 27.9486 27.7413 27.9848C27.8698 28.021 28.0043 28.0311 28.1368 28.0146C28.2693 27.998 28.3972 27.955 28.5128 27.8882C28.6284 27.8214 28.7295 27.7322 28.8101 27.6257C28.8907 27.5192 28.9491 27.3976 28.9819 27.2682C29.0148 27.1387 29.0213 27.004 29.0013 26.872C28.9812 26.74 28.9349 26.6133 28.8651 26.4995ZM9.00009 11.9995C9.00009 10.615 9.41064 9.26165 10.1798 8.1105C10.949 6.95936 12.0422 6.06215 13.3213 5.53234C14.6004 5.00252 16.0079 4.8639 17.3657 5.134C18.7236 5.40409 19.9709 6.07078 20.9498 7.04975C21.9288 8.02871 22.5955 9.276 22.8656 10.6339C23.1357 11.9917 22.9971 13.3992 22.4673 14.6783C21.9374 15.9574 21.0402 17.0506 19.8891 17.8198C18.7379 18.589 17.3846 18.9995 16.0001 18.9995C14.1442 18.9975 12.3649 18.2594 11.0525 16.9471C9.74022 15.6347 9.00208 13.8554 9.00009 11.9995Z" fill="#262626"/>
</svg>
